<svg version="1.1" id="Layer_1" xmlns="http://www.w3.org/2000/svg" xmlns:xlink="http://www.w3.org/1999/xlink" x="0px" y="0px"
	 width="100%" viewBox="0 0 950 774" enable-background="new 0 0 950 774" xml:space="preserve">
<path fill="#212322" opacity="1.000000" stroke="none" 
	d="
M1.000000,770.000000 
	C1.000000,513.728271 1.000000,257.456512 1.000000,1.000000 
	C315.696014,1.000000 630.392090,1.000000 945.544067,1.468657 
	C946.000000,255.094849 946.000000,508.252380 945.999573,761.409912 
	C945.999573,763.076477 946.449646,764.931763 945.861023,766.356628 
	C945.268860,767.789856 943.835083,769.256042 942.411072,769.857544 
	C940.995361,770.455566 939.132874,769.999451 937.466309,769.999451 
	C625.310852,770.000000 313.155426,770.000000 1.000000,770.000000 
M711.717957,366.785248 
	C712.176880,365.930115 712.635864,365.074951 714.017883,364.153595 
	C727.594666,364.152863 741.172852,364.046265 754.747070,364.230682 
	C757.887146,364.273315 760.212036,363.565308 762.538513,360.813110 
	C763.571045,359.075012 764.603577,357.336884 766.006653,355.081940 
	C767.038757,353.739166 768.070862,352.396393 769.761353,350.959503 
	C770.536621,349.690125 771.311829,348.420715 772.310303,346.715271 
	C772.471863,346.428925 772.668518,346.169159 773.572449,345.815155 
	C773.934875,345.082214 774.297363,344.349304 774.875854,343.044006 
	C775.393188,342.417694 775.910522,341.791382 776.996948,340.923676 
	C776.265747,339.330353 775.534546,337.737000 774.404785,335.707611 
	C773.849426,334.905457 773.294067,334.103302 772.834290,332.642212 
	C772.223083,332.094666 771.611938,331.547119 770.594055,330.516937 
	C769.742676,329.322510 768.891296,328.128052 768.044739,326.220062 
	C766.613770,324.542908 765.182861,322.865723 763.408997,320.851776 
	C763.231018,320.581696 763.099426,320.290649 762.943115,319.217468 
	C761.532715,318.548615 760.125549,317.304932 758.711365,317.296936 
	C736.902100,317.173004 715.091980,317.191650 693.282410,317.284637 
	C692.525452,317.287842 691.773193,318.405365 690.799072,319.919220 
	C690.757751,345.960510 690.716370,372.001801 690.349243,398.500366 
	C693.804810,401.327667 695.161621,397.895508 697.481873,395.808136 
	C697.814026,395.642578 698.146179,395.477020 699.116333,395.559418 
	C700.124084,394.815796 701.131775,394.072174 702.696350,392.996307 
	C703.632263,392.476349 704.568176,391.956421 706.188293,391.655945 
	C708.350098,390.215546 712.125488,390.201965 711.173645,385.074646 
	C711.194824,379.082977 711.216003,373.091278 711.717957,366.785248 
M465.500244,318.503906 
	C450.673035,318.503021 435.844421,318.402954 421.020355,318.618225 
	C419.013855,318.647369 416.391632,319.731750 415.152344,321.233521 
	C410.929504,326.350739 407.054657,331.778595 403.394165,337.317352 
	C402.622467,338.485046 402.681702,341.041962 403.460266,342.246063 
	C406.522247,346.981354 410.174683,351.331635 413.310120,356.023804 
	C415.403473,359.156555 417.969604,360.156342 421.682617,360.106628 
	C436.173981,359.912323 450.677246,359.786469 465.155884,360.257050 
	C467.610962,360.336823 470.279114,363.208130 472.130096,365.397369 
	C472.548370,365.892090 470.258911,369.261475 468.655762,370.670227 
	C467.619568,371.580780 465.565521,371.560455 463.965973,371.567047 
	C449.472260,371.626831 434.977966,371.564423 420.484497,371.646729 
	C418.741302,371.656586 416.469482,371.738892 415.354279,372.771820 
	C410.908051,376.890045 406.822540,381.397705 402.236969,386.140320 
	C403.464722,386.510010 404.061646,386.846558 404.658875,386.847015 
	C429.148529,386.866638 453.638397,386.891205 478.127380,386.755615 
	C479.494080,386.748077 481.264801,385.711243 482.145416,384.598083 
	C486.163025,379.519226 490.137421,374.376129 493.646881,368.945587 
	C494.574982,367.509491 494.568970,364.479492 493.653076,363.023590 
	C490.653900,358.256195 486.867096,353.991425 483.722839,349.305450 
	C481.813263,346.459625 479.535950,345.644226 476.234283,345.682098 
	C462.241974,345.842712 448.240326,345.508759 434.255890,345.878082 
	C429.064880,346.015167 426.204926,343.953247 424.360229,339.641632 
	C426.539917,335.149292 429.920166,333.680145 434.862793,333.816223 
	C447.181671,334.155457 459.594788,333.061951 471.822205,334.172089 
	C484.065582,335.283722 487.572601,325.368134 495.016510,319.855530 
	C493.965088,318.999268 493.718933,318.623260 493.470215,318.621582 
	C484.480377,318.560822 475.490326,318.534943 465.500244,318.503906 
M647.479797,318.499634 
	C640.647949,318.499573 633.738281,319.155762 627.001038,318.357422 
	C614.510498,316.877289 604.050232,319.565338 596.813965,330.487152 
	C595.283081,332.797791 593.563354,335.590515 593.524292,338.185059 
	C593.243713,356.843414 593.365356,375.507935 593.390198,394.170471 
	C593.392273,395.715057 593.621826,397.259277 593.793823,399.404083 
	C599.596802,396.120148 604.669250,393.351501 609.634338,390.402161 
	C612.661438,388.603943 614.297729,386.052795 614.047424,382.210876 
	C613.739807,377.489624 613.974121,372.733093 613.974121,367.776245 
	C628.091248,367.776245 641.335022,367.776245 655.310364,367.776245 
	C655.310364,374.216614 655.310364,380.419189 655.310364,386.570496 
	C662.480225,386.570496 668.913696,386.570496 675.334229,386.570496 
	C675.593506,385.852234 675.898499,385.400665 675.899292,384.948547 
	C675.928528,368.785583 675.945129,352.622589 675.899536,336.459717 
	C675.896423,335.356354 675.764343,333.870605 675.073364,333.210632 
	C667.510742,325.986572 661.656250,315.559052 647.479797,318.499634 
M851.087280,345.750641 
	C838.092041,345.751465 825.091858,345.549042 812.104126,345.862183 
	C807.495972,345.973267 807.363098,343.691467 807.551941,340.363586 
	C807.732849,337.175568 806.493530,333.638641 812.169006,333.819946 
	C823.486633,334.181549 834.823975,333.927307 846.153137,333.930695 
	C853.447449,333.932892 863.997925,326.005463 866.476135,318.498199 
	C841.101013,318.498199 815.793945,318.539368 790.487366,318.451935 
	C786.870605,318.439453 786.510925,320.346954 786.520203,323.218964 
	C786.583557,342.878235 786.661133,362.538879 786.465088,382.196381 
	C786.426025,386.112579 787.824951,386.945038 791.385071,386.918854 
	C809.877258,386.782898 828.371094,386.870239 846.864197,386.825073 
	C848.312988,386.821533 850.243958,386.914307 851.128052,386.085083 
	C855.778931,381.722748 860.165222,377.078308 865.562439,371.598724 
	C862.716614,371.598724 861.110352,371.598602 859.504028,371.598755 
	C843.676514,371.600311 827.845764,371.425201 812.023376,371.711029 
	C807.274353,371.796844 807.479797,369.263062 807.557678,366.085663 
	C807.634399,362.953613 806.797119,359.730957 812.046143,359.926880 
	C821.363159,360.274658 830.702698,360.067902 840.031982,359.994995 
	C841.642212,359.982422 843.729004,360.031891 844.773132,359.115479 
	C849.180176,355.247681 853.276001,351.025269 857.485596,346.932556 
	C857.263977,346.538422 857.042358,346.144257 856.820679,345.750122 
	C855.198975,345.750122 853.577209,345.750122 851.087280,345.750641 
M359.499573,371.606049 
	C354.555847,371.606049 349.612122,371.606049 344.381866,371.606049 
	C344.279724,369.284943 344.354553,367.637573 344.109283,366.039337 
	C343.369171,361.216492 345.322449,359.721832 350.137360,359.916107 
	C359.122253,360.278595 368.132599,360.066956 377.131256,359.981598 
	C378.732574,359.966400 380.803040,359.936462 381.844666,359.005066 
	C386.211121,355.100403 390.268677,350.850342 394.439423,346.726837 
	C394.261597,346.308472 394.083771,345.890137 393.905914,345.471802 
	C377.382507,345.471802 360.859100,345.471802 344.136780,345.471802 
	C344.136780,343.239471 344.331726,341.716461 344.101379,340.260773 
	C343.310364,335.261932 345.133850,333.589600 350.323242,333.799072 
	C360.639191,334.215454 371.070557,333.082977 381.294128,334.139587 
	C393.500763,335.401184 397.186981,325.667816 405.091705,318.944336 
	C402.349823,318.715424 401.095032,318.520203 399.840088,318.519348 
	C376.174744,318.502991 352.508667,318.603607 328.844696,318.423309 
	C324.678619,318.391541 323.465424,319.615906 323.507996,323.771881 
	C323.707733,343.268768 323.589539,362.768799 323.609131,382.267731 
	C323.610565,383.692078 323.804779,385.116272 323.930359,386.826569 
	C344.895416,386.826569 365.378510,386.839661 385.861450,386.783173 
	C386.766083,386.780701 387.879181,386.371887 388.538910,385.765106 
	C393.113678,381.557251 397.593964,377.246674 402.104614,372.969086 
	C401.849884,372.514771 401.595184,372.060455 401.340454,371.606140 
	C387.727173,371.606140 374.113892,371.606140 359.499573,371.606049 
M188.551910,307.380249 
	C211.671814,313.354858 227.616852,327.212372 235.177612,350.109924 
	C238.965942,361.582825 239.005966,373.162201 236.396515,384.999573 
	C234.035599,395.709473 229.088501,404.814789 222.096115,413.064178 
	C221.143005,414.188629 220.306152,416.874237 220.909927,417.609009 
	C223.931290,421.285889 227.450607,424.553589 230.929626,428.102600 
	C232.200806,426.928741 233.105438,426.223145 233.856171,425.380463 
	C243.521652,414.531250 250.396240,402.401794 253.424133,387.895905 
	C256.532410,373.005127 256.311035,358.467621 251.488663,344.163513 
	C243.411423,320.204895 227.170258,303.545532 203.834167,294.339600 
	C195.936356,291.223999 187.108276,290.426727 178.664307,288.780457 
	C177.465164,288.546661 174.905411,289.454224 174.881592,289.929108 
	C174.633530,294.876068 174.271988,299.939606 175.194641,304.729492 
	C175.402512,305.808594 180.459732,305.987946 183.297424,306.512085 
	C184.764236,306.783020 186.259171,306.901611 188.551910,307.380249 
M545.500183,371.596375 
	C541.005737,371.596863 536.504883,371.450623 532.018982,371.646912 
	C528.762451,371.789429 527.610657,370.555969 527.658142,367.315704 
	C527.797058,357.829437 527.880188,348.335144 527.625366,338.853668 
	C527.513977,334.711182 529.223328,333.810852 532.947754,333.871429 
	C543.931274,334.050171 554.919678,333.935394 565.906128,333.936798 
	C573.783020,333.937805 583.852112,326.724213 586.889832,318.818115 
	C586.422668,318.704163 585.974304,318.499481 585.525879,318.499146 
	C565.716980,318.484802 545.907898,318.457947 526.099365,318.549011 
	C524.542603,318.556152 522.573914,318.949432 521.507080,319.933441 
	C516.995789,324.094360 512.624756,328.429993 508.500458,332.972351 
	C507.430267,334.151001 507.041046,336.304016 507.017944,338.018616 
	C506.883240,348.004486 506.880432,357.994080 507.017822,367.979828 
	C507.041290,369.684296 507.471405,371.822113 508.547455,372.994446 
	C512.472778,377.271088 516.639709,381.348419 520.969604,385.216522 
	C522.154663,386.275177 524.223877,386.776764 525.893921,386.791382 
	C539.709167,386.912567 553.526184,386.896881 567.341919,386.805908 
	C568.890808,386.795715 570.846497,386.523285 571.909790,385.579529 
	C576.467651,381.533997 580.761963,377.191650 585.152344,372.957489 
	C584.978210,372.503815 584.804077,372.050140 584.629883,371.596466 
	C571.920105,371.596466 559.210388,371.596466 545.500183,371.596375 
M158.747604,449.505859 
	C163.784439,450.160919 168.821289,450.815979 174.641144,451.572876 
	C174.641144,446.443268 174.499100,442.322449 174.688766,438.216980 
	C174.825882,435.248901 173.823715,434.206146 170.760040,433.997955 
	C166.477402,433.706970 162.130859,433.081329 158.009048,431.906403 
	C132.088379,424.517853 113.801239,402.662079 111.475456,375.637634 
	C110.125717,359.954315 113.755554,345.306366 123.133179,332.307587 
	C124.382401,330.575989 127.598289,328.730438 124.745888,326.003967 
	C121.428802,322.833282 117.815720,319.972290 113.908401,316.613525 
	C94.606033,340.485901 88.994713,366.766785 98.102158,395.146088 
	C107.442192,424.250092 127.964363,442.337830 158.747604,449.505859 
M150.372101,281.460663 
	C167.412613,276.711517 184.483398,277.414154 201.768005,281.894409 
	C203.428452,276.271729 204.907867,271.261993 206.378235,266.282959 
	C155.480927,249.492035 99.640007,275.452515 78.295624,320.982208 
	C80.103767,321.997742 81.919281,323.089172 83.797157,324.059967 
	C92.904076,328.767944 92.816208,328.697937 98.122368,320.197113 
	C110.280342,300.719330 127.823082,288.360199 150.372101,281.460663 
M242.062866,455.534973 
	C242.944778,454.773010 243.843277,454.029327 244.706009,453.246246 
	C253.397430,445.357208 253.248688,445.498993 245.101868,437.153839 
	C242.046555,434.024109 240.271179,434.069214 237.066345,437.055389 
	C222.815216,450.334320 206.067764,458.341980 186.576035,460.959930 
	C169.565384,463.244659 153.429108,460.964355 137.893555,453.962738 
	C135.309631,452.798187 133.584259,452.723267 132.263290,455.542847 
	C130.452164,459.408661 128.492447,463.204865 126.628174,466.966827 
	C136.044037,473.239563 154.567429,478.102356 166.846268,478.792786 
	C194.509216,480.348267 219.445190,472.806152 242.062866,455.534973 
M278.898804,339.329956 
	C274.845215,325.874146 268.810181,313.480774 259.485535,302.329437 
	C254.972153,306.043213 250.820816,309.459076 246.670975,312.873749 
	C248.515656,315.771271 249.918686,318.022186 251.367447,320.243317 
	C264.643372,340.596893 268.704254,362.768799 264.342560,386.553925 
	C262.535675,396.407349 262.475769,396.437775 272.237122,398.774139 
	C274.152252,399.232483 276.042999,399.792786 278.606232,400.484528 
	C279.288666,398.070160 280.230560,395.772766 280.556244,393.391113 
	C281.523529,386.316742 283.175537,379.166565 282.851654,372.124573 
	C282.359192,361.416779 280.431000,350.775024 278.898804,339.329956 
M82.296997,354.199768 
	C77.737831,353.445099 73.178658,352.690430 68.672859,351.944580 
	C61.335747,373.736420 70.756752,417.196838 89.672516,436.178345 
	C92.505013,434.020386 95.215698,431.539581 98.308884,429.702911 
	C102.250778,427.362274 101.873672,425.186188 99.511780,421.767578 
	C86.818176,403.394867 81.799339,383.047241 84.278732,360.809753 
	C84.504318,358.786469 83.477058,356.623474 82.296997,354.199768 
M202.413284,415.836090 
	C214.819626,407.844940 223.756668,396.953735 226.201569,382.343964 
	C228.780151,366.935364 230.575867,369.693298 216.394547,369.397827 
	C216.228271,369.394348 216.059311,369.416077 215.895935,369.394043 
	C212.188583,368.893524 210.729858,370.339508 210.226135,374.237396 
	C208.625275,386.625671 202.893326,396.628876 191.322311,402.255920 
	C187.241104,404.240662 182.543625,404.931091 178.191833,406.402618 
	C176.844238,406.858276 174.709045,407.866089 174.642868,408.749115 
	C174.289062,413.470825 174.476013,418.233063 174.476013,423.174500 
	C184.800278,423.485474 193.562286,420.927124 202.413284,415.836090 
M144.797089,349.536438 
	C151.232330,340.589355 159.609787,334.996368 170.865250,334.131256 
	C172.100937,334.036255 174.236954,332.883423 174.281540,332.123138 
	C174.585266,326.942261 174.440552,321.735138 174.440552,316.573120 
	C139.868988,316.576904 119.056351,349.353699 122.760406,369.690735 
	C126.974983,369.690735 131.292557,369.918762 135.557770,369.546600 
	C136.778015,369.440125 138.392151,367.805176 138.889526,366.511261 
	C140.949768,361.151672 142.651367,355.654205 144.797089,349.536438 
z"/>
<path fill="#262626" opacity="1.000000" stroke="none" 
	d="
M1.000000,770.500000 
	C313.155426,770.000000 625.310852,770.000000 937.466309,769.999451 
	C939.132874,769.999451 940.995361,770.455566 942.411072,769.857544 
	C943.835083,769.256042 945.268860,767.789856 945.861023,766.356628 
	C946.449646,764.931763 945.999573,763.076477 945.999573,761.409912 
	C946.000000,508.252380 946.000000,255.094849 946.000000,1.468657 
	C947.666687,1.000000 949.333313,1.000000 951.000000,1.000000 
	C951.000000,259.000000 951.000000,517.000000 951.000000,775.000000 
	C634.333313,775.000000 317.666656,775.000000 1.000000,775.000000 
	C1.000000,773.666626 1.000000,772.333313 1.000000,770.500000 
z"/>
<path fill="#F6F6F6" opacity="1.000000" stroke="none" 
	d="
M466.000244,318.504059 
	C475.490326,318.534943 484.480377,318.560822 493.470215,318.621582 
	C493.718933,318.623260 493.965088,318.999268 495.016510,319.855530 
	C487.572601,325.368134 484.065582,335.283722 471.822205,334.172089 
	C459.594788,333.061951 447.181671,334.155457 434.862793,333.816223 
	C429.920166,333.680145 426.539917,335.149292 424.360229,339.641632 
	C426.204926,343.953247 429.064880,346.015167 434.255890,345.878082 
	C448.240326,345.508759 462.241974,345.842712 476.234283,345.682098 
	C479.535950,345.644226 481.813263,346.459625 483.722839,349.305450 
	C486.867096,353.991425 490.653900,358.256195 493.653076,363.023590 
	C494.568970,364.479492 494.574982,367.509491 493.646881,368.945587 
	C490.137421,374.376129 486.163025,379.519226 482.145416,384.598083 
	C481.264801,385.711243 479.494080,386.748077 478.127380,386.755615 
	C453.638397,386.891205 429.148529,386.866638 404.658875,386.847015 
	C404.061646,386.846558 403.464722,386.510010 402.236969,386.140320 
	C406.822540,381.397705 410.908051,376.890045 415.354279,372.771820 
	C416.469482,371.738892 418.741302,371.656586 420.484497,371.646729 
	C434.977966,371.564423 449.472260,371.626831 463.965973,371.567047 
	C465.565521,371.560455 467.619568,371.580780 468.655762,370.670227 
	C470.258911,369.261475 472.548370,365.892090 472.130096,365.397369 
	C470.279114,363.208130 467.610962,360.336823 465.155884,360.257050 
	C450.677246,359.786469 436.173981,359.912323 421.682617,360.106628 
	C417.969604,360.156342 415.403473,359.156555 413.310120,356.023804 
	C410.174683,351.331635 406.522247,346.981354 403.460266,342.246063 
	C402.681702,341.041962 402.622467,338.485046 403.394165,337.317352 
	C407.054657,331.778595 410.929504,326.350739 415.152344,321.233521 
	C416.391632,319.731750 419.013855,318.647369 421.020355,318.618225 
	C435.844421,318.402954 450.673035,318.503021 466.000244,318.504059 
z"/>
<path fill="#F6F6F6" opacity="1.000000" stroke="none" 
	d="
M647.974487,318.499756 
	C661.656250,315.559052 667.510742,325.986572 675.073364,333.210632 
	C675.764343,333.870605 675.896423,335.356354 675.899536,336.459717 
	C675.945129,352.622589 675.928528,368.785583 675.899292,384.948547 
	C675.898499,385.400665 675.593506,385.852234 675.334229,386.570496 
	C668.913696,386.570496 662.480225,386.570496 655.310364,386.570496 
	C655.310364,380.419189 655.310364,374.216614 655.310364,367.776245 
	C641.335022,367.776245 628.091248,367.776245 613.974121,367.776245 
	C613.974121,372.733093 613.739807,377.489624 614.047424,382.210876 
	C614.297729,386.052795 612.661438,388.603943 609.634338,390.402161 
	C604.669250,393.351501 599.596802,396.120148 593.793823,399.404083 
	C593.621826,397.259277 593.392273,395.715057 593.390198,394.170471 
	C593.365356,375.507935 593.243713,356.843414 593.524292,338.185059 
	C593.563354,335.590515 595.283081,332.797791 596.813965,330.487152 
	C604.050232,319.565338 614.510498,316.877289 627.001038,318.357422 
	C633.738281,319.155762 640.647949,318.499573 647.974487,318.499756 
M651.349609,333.862488 
	C643.356079,333.862885 635.362488,333.863495 627.368958,333.863617 
	C613.065369,333.863800 613.126404,333.860504 613.869812,348.367554 
	C614.008972,351.083130 614.818726,352.232788 617.670532,352.205902 
	C628.993713,352.099213 640.318970,352.102112 651.642273,352.197174 
	C654.169617,352.218414 655.326721,351.462708 655.248596,348.810883 
	C655.130920,344.817627 655.419189,340.801636 655.088440,336.832550 
	C655.000061,335.772552 653.287537,334.847900 651.349609,333.862488 
z"/>
<path fill="#F6F6F6" opacity="1.000000" stroke="none" 
	d="
M851.521362,345.750366 
	C853.577209,345.750122 855.198975,345.750122 856.820679,345.750122 
	C857.042358,346.144257 857.263977,346.538422 857.485596,346.932556 
	C853.276001,351.025269 849.180176,355.247681 844.773132,359.115479 
	C843.729004,360.031891 841.642212,359.982422 840.031982,359.994995 
	C830.702698,360.067902 821.363159,360.274658 812.046143,359.926880 
	C806.797119,359.730957 807.634399,362.953613 807.557678,366.085663 
	C807.479797,369.263062 807.274353,371.796844 812.023376,371.711029 
	C827.845764,371.425201 843.676514,371.600311 859.504028,371.598755 
	C861.110352,371.598602 862.716614,371.598724 865.562439,371.598724 
	C860.165222,377.078308 855.778931,381.722748 851.128052,386.085083 
	C850.243958,386.914307 848.312988,386.821533 846.864197,386.825073 
	C828.371094,386.870239 809.877258,386.782898 791.385071,386.918854 
	C787.824951,386.945038 786.426025,386.112579 786.465088,382.196381 
	C786.661133,362.538879 786.583557,342.878235 786.520203,323.218964 
	C786.510925,320.346954 786.870605,318.439453 790.487366,318.451935 
	C815.793945,318.539368 841.101013,318.498199 866.476135,318.498199 
	C863.997925,326.005463 853.447449,333.932892 846.153137,333.930695 
	C834.823975,333.927307 823.486633,334.181549 812.169006,333.819946 
	C806.493530,333.638641 807.732849,337.175568 807.551941,340.363586 
	C807.363098,343.691467 807.495972,345.973267 812.104126,345.862183 
	C825.091858,345.549042 838.092041,345.751465 851.521362,345.750366 
z"/>
<path fill="#F7F7F7" opacity="1.000000" stroke="none" 
	d="
M360.000092,371.606079 
	C374.113892,371.606140 387.727173,371.606140 401.340454,371.606140 
	C401.595184,372.060455 401.849884,372.514771 402.104614,372.969086 
	C397.593964,377.246674 393.113678,381.557251 388.538910,385.765106 
	C387.879181,386.371887 386.766083,386.780701 385.861450,386.783173 
	C365.378510,386.839661 344.895416,386.826569 323.930359,386.826569 
	C323.804779,385.116272 323.610565,383.692078 323.609131,382.267731 
	C323.589539,362.768799 323.707733,343.268768 323.507996,323.771881 
	C323.465424,319.615906 324.678619,318.391541 328.844696,318.423309 
	C352.508667,318.603607 376.174744,318.502991 399.840088,318.519348 
	C401.095032,318.520203 402.349823,318.715424 405.091705,318.944336 
	C397.186981,325.667816 393.500763,335.401184 381.294128,334.139587 
	C371.070557,333.082977 360.639191,334.215454 350.323242,333.799072 
	C345.133850,333.589600 343.310364,335.261932 344.101379,340.260773 
	C344.331726,341.716461 344.136780,343.239471 344.136780,345.471802 
	C360.859100,345.471802 377.382507,345.471802 393.905914,345.471802 
	C394.083771,345.890137 394.261597,346.308472 394.439423,346.726837 
	C390.268677,350.850342 386.211121,355.100403 381.844666,359.005066 
	C380.803040,359.936462 378.732574,359.966400 377.131256,359.981598 
	C368.132599,360.066956 359.122253,360.278595 350.137360,359.916107 
	C345.322449,359.721832 343.369171,361.216492 344.109283,366.039337 
	C344.354553,367.637573 344.279724,369.284943 344.381866,371.606049 
	C349.612122,371.606049 354.555847,371.606049 360.000092,371.606079 
z"/>
<path fill="#F9F9F9" opacity="1.000000" stroke="none" 
	d="
M776.427856,341.165039 
	C775.910522,341.791382 775.393188,342.417694 774.466919,343.432068 
	C773.672180,344.525452 773.286255,345.230743 772.900391,345.936035 
	C772.668518,346.169159 772.471863,346.428925 771.878052,346.998901 
	C770.664917,348.539581 769.883911,349.796600 769.102905,351.053650 
	C768.070862,352.396393 767.038757,353.739166 765.528564,355.492981 
	C763.983459,357.565857 762.916443,359.227692 761.849487,360.889526 
	C760.212036,363.565308 757.887146,364.273315 754.747070,364.230682 
	C741.172852,364.046265 727.594666,364.152863 713.186584,364.069763 
	C711.982605,365.023834 711.609924,366.061707 711.237244,367.099609 
	C711.216003,373.091278 711.194824,379.082977 710.923340,385.765228 
	C708.950012,388.116058 707.227051,389.776276 705.504089,391.436493 
	C704.568176,391.956421 703.632263,392.476349 702.109985,393.096680 
	C700.508545,393.901855 699.493408,394.606659 698.478333,395.311462 
	C698.146179,395.477020 697.814026,395.642578 696.917297,396.022217 
	C694.460144,396.838562 692.567627,397.440796 690.675049,398.043091 
	C690.716370,372.001801 690.757751,345.960510 691.376221,319.475159 
	C713.362488,319.043488 734.771606,319.028748 756.180420,319.108002 
	C758.459351,319.116455 760.736328,319.675201 763.014221,319.978638 
	C763.099426,320.290649 763.231018,320.581696 763.607910,321.361633 
	C765.217834,323.558899 766.628845,325.246246 768.039917,326.933624 
	C768.891296,328.128052 769.742676,329.322510 770.777588,331.073792 
	C771.553650,332.187500 772.146179,332.744324 772.738770,333.301147 
	C773.294067,334.103302 773.849426,334.905457 774.633179,336.309174 
	C775.383667,338.328827 775.905762,339.746948 776.427856,341.165039 
M751.000244,347.961487 
	C751.632446,347.200500 752.172546,346.332367 752.912231,345.696381 
	C756.823364,342.333527 755.705017,339.119446 752.493896,336.211975 
	C751.264343,335.098663 749.511047,333.911896 747.978760,333.888000 
	C735.874756,333.698914 723.766541,333.782898 711.556763,333.782898 
	C711.556763,339.081451 711.556763,343.784363 711.556763,348.369720 
	C724.770630,348.369720 737.536621,348.369720 751.000244,347.961487 
z"/>
<path fill="#019CD9" opacity="1.000000" stroke="none" 
	d="
M188.146667,307.234650 
	C186.259171,306.901611 184.764236,306.783020 183.297424,306.512085 
	C180.459732,305.987946 175.402512,305.808594 175.194641,304.729492 
	C174.271988,299.939606 174.633530,294.876068 174.881592,289.929108 
	C174.905411,289.454224 177.465164,288.546661 178.664307,288.780457 
	C187.108276,290.426727 195.936356,291.223999 203.834167,294.339600 
	C227.170258,303.545532 243.411423,320.204895 251.488663,344.163513 
	C256.311035,358.467621 256.532410,373.005127 253.424133,387.895905 
	C250.396240,402.401794 243.521652,414.531250 233.856171,425.380463 
	C233.105438,426.223145 232.200806,426.928741 230.929626,428.102600 
	C227.450607,424.553589 223.931290,421.285889 220.909927,417.609009 
	C220.306152,416.874237 221.143005,414.188629 222.096115,413.064178 
	C229.088501,404.814789 234.035599,395.709473 236.396515,384.999573 
	C239.005966,373.162201 238.965942,361.582825 235.177612,350.109924 
	C227.616852,327.212372 211.671814,313.354858 188.146667,307.234650 
z"/>
<path fill="#F5F5F5" opacity="1.000000" stroke="none" 
	d="
M546.000366,371.596436 
	C559.210388,371.596466 571.920105,371.596466 584.629883,371.596466 
	C584.804077,372.050140 584.978210,372.503815 585.152344,372.957489 
	C580.761963,377.191650 576.467651,381.533997 571.909790,385.579529 
	C570.846497,386.523285 568.890808,386.795715 567.341919,386.805908 
	C553.526184,386.896881 539.709167,386.912567 525.893921,386.791382 
	C524.223877,386.776764 522.154663,386.275177 520.969604,385.216522 
	C516.639709,381.348419 512.472778,377.271088 508.547455,372.994446 
	C507.471405,371.822113 507.041290,369.684296 507.017822,367.979828 
	C506.880432,357.994080 506.883240,348.004486 507.017944,338.018616 
	C507.041046,336.304016 507.430267,334.151001 508.500458,332.972351 
	C512.624756,328.429993 516.995789,324.094360 521.507080,319.933441 
	C522.573914,318.949432 524.542603,318.556152 526.099365,318.549011 
	C545.907898,318.457947 565.716980,318.484802 585.525879,318.499146 
	C585.974304,318.499481 586.422668,318.704163 586.889832,318.818115 
	C583.852112,326.724213 573.783020,333.937805 565.906128,333.936798 
	C554.919678,333.935394 543.931274,334.050171 532.947754,333.871429 
	C529.223328,333.810852 527.513977,334.711182 527.625366,338.853668 
	C527.880188,348.335144 527.797058,357.829437 527.658142,367.315704 
	C527.610657,370.555969 528.762451,371.789429 532.018982,371.646912 
	C536.504883,371.450623 541.005737,371.596863 546.000366,371.596436 
z"/>
<path fill="#019CD9" opacity="1.000000" stroke="none" 
	d="
M158.326782,449.447021 
	C127.964363,442.337830 107.442192,424.250092 98.102158,395.146088 
	C88.994713,366.766785 94.606033,340.485901 113.908401,316.613525 
	C117.815720,319.972290 121.428802,322.833282 124.745888,326.003967 
	C127.598289,328.730438 124.382401,330.575989 123.133179,332.307587 
	C113.755554,345.306366 110.125717,359.954315 111.475456,375.637634 
	C113.801239,402.662079 132.088379,424.517853 158.009048,431.906403 
	C162.130859,433.081329 166.477402,433.706970 170.760040,433.997955 
	C173.823715,434.206146 174.825882,435.248901 174.688766,438.216980 
	C174.499100,442.322449 174.641144,446.443268 174.641144,451.572876 
	C168.821289,450.815979 163.784439,450.160919 158.326782,449.447021 
z"/>
<path fill="#019CD9" opacity="1.000000" stroke="none" 
	d="
M149.970703,281.551880 
	C127.823082,288.360199 110.280342,300.719330 98.122368,320.197113 
	C92.816208,328.697937 92.904076,328.767944 83.797157,324.059967 
	C81.919281,323.089172 80.103767,321.997742 78.295624,320.982208 
	C99.640007,275.452515 155.480927,249.492035 206.378235,266.282959 
	C204.907867,271.261993 203.428452,276.271729 201.768005,281.894409 
	C184.483398,277.414154 167.412613,276.711517 149.970703,281.551880 
z"/>
<path fill="#019CD9" opacity="1.000000" stroke="none" 
	d="
M241.795349,455.766327 
	C219.445190,472.806152 194.509216,480.348267 166.846268,478.792786 
	C154.567429,478.102356 136.044037,473.239563 126.628174,466.966827 
	C128.492447,463.204865 130.452164,459.408661 132.263290,455.542847 
	C133.584259,452.723267 135.309631,452.798187 137.893555,453.962738 
	C153.429108,460.964355 169.565384,463.244659 186.576035,460.959930 
	C206.067764,458.341980 222.815216,450.334320 237.066345,437.055389 
	C240.271179,434.069214 242.046555,434.024109 245.101868,437.153839 
	C253.248688,445.498993 253.397430,445.357208 244.706009,453.246246 
	C243.843277,454.029327 242.944778,454.773010 241.795349,455.766327 
z"/>
<path fill="#019CD9" opacity="1.000000" stroke="none" 
	d="
M279.005676,339.717590 
	C280.431000,350.775024 282.359192,361.416779 282.851654,372.124573 
	C283.175537,379.166565 281.523529,386.316742 280.556244,393.391113 
	C280.230560,395.772766 279.288666,398.070160 278.606232,400.484528 
	C276.042999,399.792786 274.152252,399.232483 272.237122,398.774139 
	C262.475769,396.437775 262.535675,396.407349 264.342560,386.553925 
	C268.704254,362.768799 264.643372,340.596893 251.367447,320.243317 
	C249.918686,318.022186 248.515656,315.771271 246.670975,312.873749 
	C250.820816,309.459076 254.972153,306.043213 259.485535,302.329437 
	C268.810181,313.480774 274.845215,325.874146 279.005676,339.717590 
z"/>
<path fill="#019CD9" opacity="1.000000" stroke="none" 
	d="
M82.664291,354.362549 
	C83.477058,356.623474 84.504318,358.786469 84.278732,360.809753 
	C81.799339,383.047241 86.818176,403.394867 99.511780,421.767578 
	C101.873672,425.186188 102.250778,427.362274 98.308884,429.702911 
	C95.215698,431.539581 92.505013,434.020386 89.672516,436.178345 
	C70.756752,417.196838 61.335747,373.736420 68.672859,351.944580 
	C73.178658,352.690430 77.737831,353.445099 82.664291,354.362549 
z"/>
<path fill="#019CD9" opacity="1.000000" stroke="none" 
	d="
M202.084625,415.994202 
	C193.562286,420.927124 184.800278,423.485474 174.476013,423.174500 
	C174.476013,418.233063 174.289062,413.470825 174.642868,408.749115 
	C174.709045,407.866089 176.844238,406.858276 178.191833,406.402618 
	C182.543625,404.931091 187.241104,404.240662 191.322311,402.255920 
	C202.893326,396.628876 208.625275,386.625671 210.226135,374.237396 
	C210.729858,370.339508 212.188583,368.893524 215.895935,369.394043 
	C216.059311,369.416077 216.228271,369.394348 216.394547,369.397827 
	C230.575867,369.693298 228.780151,366.935364 226.201569,382.343964 
	C223.756668,396.953735 214.819626,407.844940 202.084625,415.994202 
z"/>
<path fill="#029BD7" opacity="1.000000" stroke="none" 
	d="
M144.640884,349.871918 
	C142.651367,355.654205 140.949768,361.151672 138.889526,366.511261 
	C138.392151,367.805176 136.778015,369.440125 135.557770,369.546600 
	C131.292557,369.918762 126.974983,369.690735 122.760406,369.690735 
	C119.056351,349.353699 139.868988,316.576904 174.440552,316.573120 
	C174.440552,321.735138 174.585266,326.942261 174.281540,332.123138 
	C174.236954,332.883423 172.100937,334.036255 170.865250,334.131256 
	C159.609787,334.996368 151.232330,340.589355 144.640884,349.871918 
z"/>
<path fill="#686969" opacity="1.000000" stroke="none" 
	d="
M762.978638,319.598053 
	C760.736328,319.675201 758.459351,319.116455 756.180420,319.108002 
	C734.771606,319.028748 713.362488,319.043488 691.486084,319.017273 
	C691.773193,318.405365 692.525452,317.287842 693.282410,317.284637 
	C715.091980,317.191650 736.902100,317.173004 758.711365,317.296936 
	C760.125549,317.304932 761.532715,318.548615 762.978638,319.598053 
z"/>
<path fill="#686969" opacity="1.000000" stroke="none" 
	d="
M705.846191,391.546204 
	C707.227051,389.776276 708.950012,388.116058 710.925659,386.234192 
	C712.125488,390.201965 708.350098,390.215546 705.846191,391.546204 
z"/>
<path fill="#686969" opacity="1.000000" stroke="none" 
	d="
M690.512146,398.271729 
	C692.567627,397.440796 694.460144,396.838562 696.732239,396.234619 
	C695.161621,397.895508 693.804810,401.327667 690.512146,398.271729 
z"/>
<path fill="#686969" opacity="1.000000" stroke="none" 
	d="
M768.042358,326.576843 
	C766.628845,325.246246 765.217834,323.558899 763.779297,321.530029 
	C765.182861,322.865723 766.613770,324.542908 768.042358,326.576843 
z"/>
<path fill="#686969" opacity="1.000000" stroke="none" 
	d="
M762.193970,360.851318 
	C762.916443,359.227692 763.983459,357.565857 765.343262,355.751404 
	C764.603577,357.336884 763.571045,359.075012 762.193970,360.851318 
z"/>
<path fill="#686969" opacity="1.000000" stroke="none" 
	d="
M776.712402,341.044373 
	C775.905762,339.746948 775.383667,338.328827 774.832397,336.527222 
	C775.534546,337.737000 776.265747,339.330353 776.712402,341.044373 
z"/>
<path fill="#686969" opacity="1.000000" stroke="none" 
	d="
M769.432129,351.006592 
	C769.883911,349.796600 770.664917,348.539581 771.766479,347.216919 
	C771.311829,348.420715 770.536621,349.690125 769.432129,351.006592 
z"/>
<path fill="#686969" opacity="1.000000" stroke="none" 
	d="
M698.797363,395.435425 
	C699.493408,394.606659 700.508545,393.901855 701.831543,393.262817 
	C701.131775,394.072174 700.124084,394.815796 698.797363,395.435425 
z"/>
<path fill="#686969" opacity="1.000000" stroke="none" 
	d="
M711.477600,366.942444 
	C711.609924,366.061707 711.982605,365.023834 712.725037,364.102875 
	C712.635864,365.074951 712.176880,365.930115 711.477600,366.942444 
z"/>
<path fill="#686969" opacity="1.000000" stroke="none" 
	d="
M773.236450,345.875610 
	C773.286255,345.230743 773.672180,344.525452 774.358948,343.718262 
	C774.297363,344.349304 773.934875,345.082214 773.236450,345.875610 
z"/>
<path fill="#686969" opacity="1.000000" stroke="none" 
	d="
M772.786499,332.971680 
	C772.146179,332.744324 771.553650,332.187500 770.980957,331.315125 
	C771.611938,331.547119 772.223083,332.094666 772.786499,332.971680 
z"/>
<path fill="#282A29" opacity="1.000000" stroke="none" 
	d="
M651.835144,333.861816 
	C653.287537,334.847900 655.000061,335.772552 655.088440,336.832550 
	C655.419189,340.801636 655.130920,344.817627 655.248596,348.810883 
	C655.326721,351.462708 654.169617,352.218414 651.642273,352.197174 
	C640.318970,352.102112 628.993713,352.099213 617.670532,352.205902 
	C614.818726,352.232788 614.008972,351.083130 613.869812,348.367554 
	C613.126404,333.860504 613.065369,333.863800 627.368958,333.863617 
	C635.362488,333.863495 643.356079,333.862885 651.835144,333.861816 
z"/>
<path fill="#2D2F2E" opacity="1.000000" stroke="none" 
	d="
M750.651367,348.165588 
	C737.536621,348.369720 724.770630,348.369720 711.556763,348.369720 
	C711.556763,343.784363 711.556763,339.081451 711.556763,333.782898 
	C723.766541,333.782898 735.874756,333.698914 747.978760,333.888000 
	C749.511047,333.911896 751.264343,335.098663 752.493896,336.211975 
	C755.705017,339.119446 756.823364,342.333527 752.912231,345.696381 
	C752.172546,346.332367 751.632446,347.200500 750.651367,348.165588 
z"/>
</svg>